<?xml version="1.0" encoding="utf-8"?>
<!-- Generator: Adobe Illustrator 22.1.0, SVG Export Plug-In . SVG Version: 6.00 Build 0)  -->
<svg version="1.1" id="Calque_1" xmlns="http://www.w3.org/2000/svg" xmlns:xlink="http://www.w3.org/1999/xlink" x="0px" y="0px"
	 viewBox="0 0 48 48" style="enable-background:new 0 0 48 48;" xml:space="preserve">
<style type="text/css">
	.st0{fill:#D10C0C;}
	.st1{fill:#DB2A2A;}
</style>
<g id="Icons">
	<g>
		<path class="st0" d="M24,14.7c-3.8,0-6.8,3.1-6.8,6.8c0,0.1,0,0.3,0,0.4c0,0.6,0.1,1.1,0.3,1.7c0.2,0.5,0.4,1,0.7,1.5
			c0,0,0.2,0.3,0.5,0.7c0,0,0,0,0,0c1.3,2,4.7,7.1,4.8,7.1c0.2,0.4,0.8,0.4,1,0c0,0,0,0,0,0c0.1-0.1,5.1-7.7,5.3-7.9
			c0-0.1,0.1-0.1,0.1-0.2c0.3-0.5,0.5-1,0.6-1.5c0.2-0.6,0.2-1.2,0.2-1.8C30.8,17.8,27.8,14.7,24,14.7z M24.2,25
			c-1.5,0.1-2.8-1-2.9-2.5c-0.1-1.5,1-2.8,2.5-2.9c1.5-0.1,2.8,1,2.9,2.5S25.7,24.9,24.2,25z"/>
		<path class="st1" d="M18.6,19.1c0,0,1.6-3.8,5.4-3.5c0,0,1.2,0,1.2,0.5c0,0.7-1.2,0.5-1.2,0.5S20.6,16.2,18.6,19.1z"/>
	</g>
</g>
</svg>
